<?xml version="1.0" encoding="iso-8859-1"?>
<!-- Generator: Adobe Illustrator 16.0.0, SVG Export Plug-In . SVG Version: 6.00 Build 0)  -->
<!DOCTYPE svg PUBLIC "-//W3C//DTD SVG 1.1//EN" "http://www.w3.org/Graphics/SVG/1.1/DTD/svg11.dtd">
<svg version="1.1" id="Capa_1" xmlns="http://www.w3.org/2000/svg" xmlns:xlink="http://www.w3.org/1999/xlink" x="0px" y="0px"
	 width="615.584px" height="615.584px" viewBox="0 0 615.584 615.584" style="enable-background:new 0 0 615.584 615.584;"
	 xml:space="preserve">
<g>
	<path style="fill:#27241F;" d="M479.787,454.142h-22.223c-11.368,0-14.26-6.115-14.914-10.382c0-1.024-0.057-2.418-0.114-4.067l0,0
		l0,0c-0.758-22.31-6.466-98.873-48.789-159.429l0.199-0.009l-4.893-8.291c-0.521-3.053-0.341-7.485,7.14-1.261
		c36.682,31.61,90.923,91.81,94.033,173.986C490.018,448.254,488.443,454.142,479.787,454.142L479.787,454.142z M359.445,187.904
		c-0.076,3.518-1.423,16.497-17.701,14.98c-0.901-0.085-1.489-0.057-2.086-0.028c-10.468-1.29-21.029-2.152-31.866-2.152
		c-12.325,0-24.366,1.19-36.255,2.873c-0.825-0.038-1.773,0-2.949,0.147c-12.922,1.531-15.179-6.566-15.492-10.723v-20.048
		c0-15.492,12.543-28.054,28.045-28.054h50.278c15.492,0,28.045,12.562,28.045,28.054v14.952H359.445L359.445,187.904z
		 M600.87,454.359h-14.563c-17.644,0-16.971-16.829-16.971-16.829s-0.114,0.038-0.143,0.038
		c-9.822-98.797-74.18-181.334-162.608-217.286c-0.247-0.124-0.427-0.251-0.683-0.365c-14.336-6.271-14.677-20.322-14.677-20.322
		v-37.706c0-24.291-19.683-44.011-43.992-44.011H268.36c-24.29,0-44.001,19.721-44.001,44.011v43.309
		c-0.398,3.631-2.545,9.661-11.927,13.625c-0.598,0.27-1.057,0.521-1.541,0.739C121.717,255.03,56.592,337.7,46.448,436.876
		l-0.119-0.038c0,0-1.456,17.521-18.194,17.521H17.246C13.785,454.436,0,455.648,0,469.852v11.377
		c0.204,4.873,2.323,16.478,18.284,16.478h578.329c15.813,0,18.563-10.239,18.971-15.358v-11.577
		C615.584,457.1,605.819,454.691,600.87,454.359L600.87,454.359z"/>
</g>
<g>
</g>
<g>
</g>
<g>
</g>
<g>
</g>
<g>
</g>
<g>
</g>
<g>
</g>
<g>
</g>
<g>
</g>
<g>
</g>
<g>
</g>
<g>
</g>
<g>
</g>
<g>
</g>
<g>
</g>
</svg>
