<svg width="480" height="480" xmlns="http://www.w3.org/2000/svg">
 <g>
  <title>Layer 1</title>
  <g id="svg_1">
   <g id="svg_2">
    <path d="m240,144c-17.673,0 -32,14.327 -32,32l0,272c0,17.673 14.327,32 32,32c17.673,0 32,-14.327 32,-32l0,-272c0,-17.673 -14.327,-32 -32,-32zm16,304c0,8.837 -7.163,16 -16,16s-16,-7.163 -16,-16l0,-272c0,-8.837 7.163,-16 16,-16s16,7.163 16,16l0,272z" id="svg_3"/>
   </g>
  </g>
  <g id="svg_4">
   <g id="svg_5">
    <path d="m136,240c-17.673,0 -32,14.327 -32,32l0,176c0,17.673 14.327,32 32,32s32,-14.327 32,-32l0,-176c0,-17.673 -14.327,-32 -32,-32zm16,208c0,8.837 -7.163,16 -16,16s-16,-7.163 -16,-16l0,-176c0,-8.837 7.163,-16 16,-16s16,7.163 16,16l0,176z" id="svg_6"/>
   </g>
  </g>
  <g id="svg_7">
   <g id="svg_8">
    <path d="m32,352c-17.673,0 -32,14.327 -32,32l0,64c0,17.673 14.327,32 32,32s32,-14.327 32,-32l0,-64c0,-17.673 -14.327,-32 -32,-32zm16,96c0,8.837 -7.163,16 -16,16s-16,-7.163 -16,-16l0,-64c0,-8.837 7.163,-16 16,-16s16,7.163 16,16l0,64z" id="svg_9"/>
   </g>
  </g>
  <g id="svg_10">
   <g id="svg_11">
    <path d="m344,48c-17.673,0 -32,14.327 -32,32l0,368c0,17.673 14.327,32 32,32c17.673,0 32,-14.327 32,-32l0,-368c0,-17.673 -14.327,-32 -32,-32zm16,400c0,8.837 -7.163,16 -16,16s-16,-7.163 -16,-16l0,-368c0,-8.837 7.163,-16 16,-16s16,7.163 16,16l0,368z" id="svg_12"/>
   </g>
  </g>
  <g id="svg_13">
   <g id="svg_14">
    <path d="m448,0c-17.673,0 -32,14.327 -32,32l0,416c0,17.673 14.327,32 32,32c17.673,0 32,-14.327 32,-32l0,-416c0,-17.673 -14.327,-32 -32,-32zm16,448c0,8.837 -7.163,16 -16,16s-16,-7.163 -16,-16l0,-416c0,-8.837 7.163,-16 16,-16s16,7.163 16,16l0,416z" id="svg_15"/>
   </g>
  </g>
  <g id="svg_16"/>
  <g id="svg_17"/>
  <g id="svg_18"/>
  <g id="svg_19"/>
  <g id="svg_20"/>
  <g id="svg_21"/>
  <g id="svg_22"/>
  <g id="svg_23"/>
  <g id="svg_24"/>
  <g id="svg_25"/>
  <g id="svg_26"/>
  <g id="svg_27"/>
  <g id="svg_28"/>
  <g id="svg_29"/>
  <g id="svg_30"/>
  <ellipse fill="#000000" stroke="#000" cx="32" cy="415" id="svg_31" rx="25.5" ry="57"/>
  <ellipse fill="#000000" stroke="#000" cx="137" cy="360.49999" id="svg_34" rx="29.5" ry="112.50001"/>
  <path fill="none" d="m247.5,204c0,1 0.96109,7.07747 0,13c-1.01308,6.24289 -2.84723,12.04132 -4,16c-0.88414,3.03616 -1,4 -1,0c0,-8 0,-16 0,-31c0,-14 0,-27 0,-38c0,-5 -2.31461,0.9614 -4,16c-2.46034,21.95329 -3,43 -4,58l0,13l0,6l0,2" id="svg_32"/>
  <rect id="svg_36" height="307" width="45" y="159" x="216.5" fill="#000000"/>
  <rect id="svg_37" height="408" width="41" y="63" x="325.5" fill="#000000"/>
 </g>

</svg>