<svg width="408" height="408" xmlns="http://www.w3.org/2000/svg" xml:space="preserve" version="1.1">

 <g>
  <title>Layer 1</title>
  <path id="svg_1" d="m203.174,342.483c-76.33,0 -138.429,-62.097 -138.429,-138.424c0,-76.33 62.099,-138.429 138.429,-138.429c76.327,0 138.424,62.099 138.424,138.429c0,76.328 -62.097,138.424 -138.424,138.424zm0,-266.853c-70.815,0 -128.429,57.613 -128.429,128.429c0,70.813 57.613,128.424 128.429,128.424c70.813,0 128.424,-57.611 128.424,-128.424c0,-70.816 -57.611,-128.429 -128.424,-128.429zm-167.897,261.123l-14.145,0c-2.762,0 -5,-2.239 -5,-5l0,-155.592c-9.529,-4.24 -16.132,-13.337 -16.132,-23.85l0,-70.198c0,-2.761 2.238,-5 5,-5s5,2.239 5,5l0,65.198l5.468,0l0,-65.198c0,-2.761 2.238,-5 5,-5s5,2.239 5,5l0,65.198l5.474,0l0,-65.198c0,-2.761 2.238,-5 5,-5s5,2.239 5,5l0,65.198l5.469,0l0,-65.198c0,-2.761 2.238,-5 5,-5s5,2.239 5,5l0,70.198c0,10.513 -6.604,19.61 -16.133,23.851l0,155.591c-0.001,2.761 -2.239,5 -5.001,5zm-9.145,-10l4.146,0l0,-148.05l-4.146,0l0,148.05zm-15.266,-169.442c2.353,6.602 9.236,11.393 17.339,11.393s14.986,-4.791 17.339,-11.393l-34.678,0zm373.825,178.153l-14.6,0c-2.762,0 -5,-2.239 -5,-5l0,-251.222c0,-2.063 1.268,-3.916 3.191,-4.662c1.928,-0.747 4.108,-0.234 5.501,1.29c1.122,1.229 27.53,30.567 32.242,72.151c4.586,40.435 0.21,107.148 0.021,109.968c-0.176,2.626 -2.357,4.667 -4.989,4.667l-11.367,0l0,67.808c0.001,2.761 -2.237,5 -4.999,5zm-9.599,-10l4.6,0l0,-62.808l-4.6,0l0,62.808zm0,-72.808l21.26,0c0.916,-16.083 3.539,-70.003 -0.261,-103.508c-2.673,-23.579 -13.229,-43.257 -20.999,-54.955l0,158.463zm-171.918,46.408c-52.389,0 -95.01,-42.619 -95.01,-95.005c0,-52.389 42.621,-95.01 95.01,-95.01c52.386,0 95.005,42.622 95.005,95.01c0,52.386 -42.619,95.005 -95.005,95.005zm0,-180.015c-46.875,0 -85.01,38.135 -85.01,85.01c0,46.872 38.135,85.005 85.01,85.005c46.872,0 85.005,-38.133 85.005,-85.005c0,-46.875 -38.133,-85.01 -85.005,-85.01zm-98.369,21.929c-0.894,0 -1.799,-0.239 -2.615,-0.742c-2.353,-1.447 -3.085,-4.527 -1.638,-6.879c16.541,-26.879 47.096,-41.172 48.388,-41.767c2.509,-1.156 5.479,-0.059 6.634,2.45c1.154,2.507 0.059,5.475 -2.447,6.631l0,0c-0.289,0.134 -29.134,13.675 -44.059,37.927c-0.945,1.535 -2.585,2.38 -4.263,2.38z"/>
  <g id="svg_2"/>
  <g id="svg_3"/>
  <g id="svg_4"/>
  <g id="svg_5"/>
  <g id="svg_6"/>
  <g id="svg_7"/>
  <g id="svg_8"/>
  <g id="svg_9"/>
  <g id="svg_10"/>
  <g id="svg_11"/>
  <g id="svg_12"/>
  <g id="svg_13"/>
  <g id="svg_14"/>
  <g id="svg_15"/>
  <g id="svg_16"/>
 </g>
</svg>