<svg width="512" height="512" xmlns="http://www.w3.org/2000/svg" data-name="Layer 1">
 <title/>

 <g>
  <title>Layer 1</title>
  <path d="m390,294.54l0,0a135.56,135.56 0 0 0 -39.15,-95.39a8.36,8.36 0 0 0 -0.68,-0.79a8.47,8.47 0 0 0 -0.8,-0.68a135.54,135.54 0 0 0 -95.37,-39.16l0,0a135.54,135.54 0 0 0 -95.38,39.16a7.36,7.36 0 0 0 -1.48,1.47a135.56,135.56 0 0 0 -39.14,95.39l0,0a135.55,135.55 0 0 0 39.15,95.38a8.36,8.36 0 0 0 0.68,0.79a8.59,8.59 0 0 0 0.8,0.69a135.57,135.57 0 0 0 95.37,39.15l0,0a135.57,135.57 0 0 0 95.38,-39.15a7.78,7.78 0 0 0 1.48,-1.48a135.55,135.55 0 0 0 39.14,-95.38zm-29.25,8l13,0a119.5,119.5 0 0 1 -29.45,71l-9.14,-9.13a8,8 0 0 0 -11.31,11.31l9.13,9.13a119.45,119.45 0 0 1 -71,29.46l0,-13a8,8 0 1 0 -16,0l0,13a119.57,119.57 0 0 1 -71,-29.46l9.13,-9.13a8,8 0 1 0 -11.31,-11.32l-9.14,9.14a119.5,119.5 0 0 1 -29.45,-71l13,0a8,8 0 0 0 0,-16l-13,0a119.53,119.53 0 0 1 29.45,-71l9.14,9.14a8,8 0 0 0 11.31,-11.31l-9.11,-9.12a119.5,119.5 0 0 1 71,-29.45l0,13a8,8 0 0 0 16,0l0,-13a119.5,119.5 0 0 1 71,29.45l-9.13,9.14a8,8 0 0 0 11.31,11.31l9.14,-9.14a119.53,119.53 0 0 1 29.45,71l-13,0a8,8 0 0 0 0,16l-0.02,-0.02zm26.52,-110.17l25.66,-25.65a8,8 0 0 0 0,-11.32l-19.8,-19.8a8,8 0 0 0 -11.32,0l-25.65,25.65a167.15,167.15 0 0 0 -80.16,-33.25l0,-28.23l20.67,0a8,8 0 0 0 8,-8l0,-34.32a8,8 0 0 0 -8,-8l-85.34,0a8,8 0 0 0 -8,8l0,34.32a8,8 0 0 0 8,8l20.67,0l0,28.23a167.11,167.11 0 0 0 -80.17,33.28l-25.65,-25.68a8,8 0 0 0 -11.32,0l-19.8,19.8a8,8 0 0 0 0,11.32l25.66,25.65a167.14,167.14 0 0 0 -34.72,102.17c0,92.64 75.37,168 168,168s168,-75.37 168,-168a167.14,167.14 0 0 0 -34.72,-102.17l-0.01,0zm0.2,-39.8l8.49,8.49l-19.06,19.05q-4.08,-4.38 -8.48,-8.48l19.05,-19.06zm-168.14,-87.12l69.34,0l0,18.32l-69.34,0l0,-18.32zm28.67,34.32l12,0l0,26.87c-2,-0.07 -4,-0.12 -6,-0.12s-4,0 -6,0.12l0,-26.87zm-136,61.29l8.49,-8.49l19.06,19.06q-4.4,4.1 -8.49,8.48l-19.06,-19.05zm142,285.49c-83.82,0 -152,-68.19 -152,-152s68.19,-152 152,-152s152,68.2 152,152s-68.18,152 -152,152zm35.83,-127.55a8,8 0 0 1 -11.32,11.31l-30.17,-30.11l0,0c-0.18,-0.18 -0.36,-0.38 -0.53,-0.58l-0.22,-0.3l-0.24,-0.33c-0.08,-0.12 -0.15,-0.24 -0.22,-0.36a3.14,3.14 0 0 1 -0.18,-0.31a2.64,2.64 0 0 1 -0.18,-0.38c-0.06,-0.11 -0.11,-0.22 -0.16,-0.33s-0.09,-0.25 -0.14,-0.37s-0.09,-0.24 -0.12,-0.37s-0.07,-0.25 -0.1,-0.37s-0.07,-0.26 -0.09,-0.39s0,-0.3 -0.07,-0.45s0,-0.21 -0.05,-0.32a7,7 0 0 1 0,-0.79l0,-77.73a8,8 0 0 1 16,0l0,74.4l27.79,27.78z" id="svg_1"/>
 </g>
</svg>